<svg width="63" height="63" viewBox="0 0 63 63" fill="none" xmlns="http://www.w3.org/2000/svg">
<mask id="path-1-inside-1_1_4" fill="white">
<path d="M49.3576 57.4491C45.9499 59.7942 42.1137 61.4452 38.0679 62.3077C34.0222 63.1702 29.8462 63.2274 25.7784 62.476C21.7106 61.7246 17.8306 60.1794 14.3599 57.9285C10.8893 55.6777 7.89596 52.7653 5.55087 49.3576C3.20578 45.9499 1.55485 42.1137 0.692335 38.0679C-0.170179 34.0222 -0.227383 29.8462 0.523989 25.7784C1.27536 21.7106 2.82059 17.8306 5.07146 14.3599C7.32233 10.8893 10.2347 7.89596 13.6424 5.55087L17.7028 11.451C15.0699 13.2629 12.8197 15.5756 11.0806 18.2571C9.34157 20.9387 8.14768 23.9364 7.56715 27.0793C6.98662 30.2223 7.03082 33.4487 7.69722 36.5746C8.36362 39.7004 9.63917 42.6643 11.451 45.2972C13.2629 47.9301 15.5756 50.1803 18.2571 51.9194C20.9387 53.6584 23.9364 54.8523 27.0793 55.4328C30.2223 56.0134 33.4487 55.9692 36.5746 55.3028C39.7004 54.6364 42.6643 53.3608 45.2972 51.549L49.3576 57.4491Z"/>
</mask>
<path d="M49.3576 57.4491C45.9499 59.7942 42.1137 61.4452 38.0679 62.3077C34.0222 63.1702 29.8462 63.2274 25.7784 62.476C21.7106 61.7246 17.8306 60.1794 14.3599 57.9285C10.8893 55.6777 7.89596 52.7653 5.55087 49.3576C3.20578 45.9499 1.55485 42.1137 0.692335 38.0679C-0.170179 34.0222 -0.227383 29.8462 0.523989 25.7784C1.27536 21.7106 2.82059 17.8306 5.07146 14.3599C7.32233 10.8893 10.2347 7.89596 13.6424 5.55087L17.7028 11.451C15.0699 13.2629 12.8197 15.5756 11.0806 18.2571C9.34157 20.9387 8.14768 23.9364 7.56715 27.0793C6.98662 30.2223 7.03082 33.4487 7.69722 36.5746C8.36362 39.7004 9.63917 42.6643 11.451 45.2972C13.2629 47.9301 15.5756 50.1803 18.2571 51.9194C20.9387 53.6584 23.9364 54.8523 27.0793 55.4328C30.2223 56.0134 33.4487 55.9692 36.5746 55.3028C39.7004 54.6364 42.6643 53.3608 45.2972 51.549L49.3576 57.4491Z" stroke="#445AFF" stroke-width="10" mask="url(#path-1-inside-1_1_4)"/>
<path d="M14.2009 12.217C18.7271 8.10538 24.5181 5.73752 30.5709 5.51692C36.6237 5.29633 42.5652 7.23654 47.3674 11.0073C52.1702 14.7785 55.5324 20.1447 56.8654 26.181C58.1985 32.2175 57.4168 38.538 54.6578 44.0473" stroke="#7786FF" stroke-width="3" stroke-linecap="round" stroke-dasharray="9 7"/>
<circle cx="15.5" cy="9.5" r="3.5" fill="black" stroke="#445AFF" stroke-width="6"/>
<circle cx="48.5" cy="53.5" r="3.5" fill="black" stroke="#445AFF" stroke-width="6"/>
</svg>
